<svg width="24" height="25" viewBox="0 0 24 25" fill="none" xmlns="http://www.w3.org/2000/svg">
<path d="M3 7.6261C3 7.09567 3.21071 6.58696 3.58579 6.21188C3.96086 5.83681 4.46957 5.6261 5 5.6261H19C19.5304 5.6261 20.0391 5.83681 20.4142 6.21188C20.7893 6.58696 21 7.09567 21 7.6261M3 7.6261V17.6261C3 18.1565 3.21071 18.6652 3.58579 19.0403C3.96086 19.4154 4.46957 19.6261 5 19.6261H19C19.5304 19.6261 20.0391 19.4154 20.4142 19.0403C20.7893 18.6652 21 18.1565 21 17.6261V7.6261M3 7.6261L12 13.6261L21 7.6261" stroke="white" stroke-width="2" stroke-linecap="round" stroke-linejoin="round"/>
</svg>
