<svg width="135" height="135" viewBox="0 0 135 135" fill="none" xmlns="http://www.w3.org/2000/svg">
<path d="M50.75 73.2094H50.8058M84.25 73.2094H84.3058M61.9167 95.5428H73.0833M17.25 67.6261C17.25 74.225 18.5498 80.7593 21.0751 86.8559C23.6004 92.9526 27.3017 98.4921 31.9679 103.158C36.634 107.824 42.1735 111.526 48.2702 114.051C54.3668 116.576 60.9011 117.876 67.5 117.876C74.0989 117.876 80.6332 116.576 86.7298 114.051C92.8265 111.526 98.366 107.824 103.032 103.158C107.698 98.4921 111.4 92.9526 113.925 86.8559C116.45 80.7593 117.75 74.225 117.75 67.6261C117.75 54.299 112.456 41.5177 103.032 32.094C93.6084 22.6703 80.8271 17.3761 67.5 17.3761C54.1729 17.3761 41.3916 22.6703 31.9679 32.094C22.5442 41.5177 17.25 54.299 17.25 67.6261Z" stroke="black" stroke-width="11" stroke-linecap="round" stroke-linejoin="round"/>
</svg>
