<?xml version="1.0" encoding="UTF-8"?>
<svg id="Layer_2" data-name="Layer 2" xmlns="http://www.w3.org/2000/svg" xmlns:xlink="http://www.w3.org/1999/xlink" viewBox="0 0 347.08 181.53">
  <defs>
    <style>
      .cls-1 {
        fill: #1e1e1e;
      }

      .cls-1, .cls-2, .cls-3, .cls-4, .cls-5 {
        stroke-width: 0px;
      }

      .cls-6 {
        opacity: .6;
      }

      .cls-2 {
        fill: url(#linear-gradient-4);
      }

      .cls-3 {
        fill: url(#linear-gradient-2);
      }

      .cls-4 {
        fill: url(#linear-gradient-3);
      }

      .cls-5 {
        fill: url(#linear-gradient);
        opacity: .3;
      }
    </style>
    <linearGradient id="linear-gradient" x1="281.92" y1="63.34" x2="228.48" y2="100.52" gradientUnits="userSpaceOnUse">
      <stop offset="0" stop-color="#f12711"/>
      <stop offset="1" stop-color="#f5af19"/>
    </linearGradient>
    <linearGradient id="linear-gradient-2" x1="286.4" y1="74.53" x2="216.37" y2="123.24" xlink:href="#linear-gradient"/>
    <linearGradient id="linear-gradient-3" x1="339.87" y1="29.92" x2="168.53" y2="149.12" xlink:href="#linear-gradient"/>
    <linearGradient id="linear-gradient-4" x1="1.74" y1="158.34" x2="72.81" y2="102.37" xlink:href="#linear-gradient"/>
  </defs>
  <g id="Layer_30" data-name="Layer 30">
    <g>
      <path class="cls-5" d="M319.09,118.78c-.73-27.35-23.88-50.29-50.64-50.29-.1,0-.21,0-.31,0h-37.5l-.85.02c-6.43.26-15.67-5.4-15.95-12.3-.33-8.14,3.5-15.67,16.87-15.67l-31.33-1.09,19.33,57.45,100.36,21.88Z"/>
      <g class="cls-6">
        <path class="cls-3" d="M322.24,124.17c-.73-27.35-23.88-50.29-50.64-50.29-.1,0-.21,0-.31,0h-37.5l-.85.02c-6.43.26-12.5-1.94-16.65-6.06-2.51-2.49-4.98-6.77-3.19-16.92l-25.01,45.31,134.15,27.94Z"/>
      </g>
      <path class="cls-4" d="M273.28,181.53h-105.4v-40.02h105.4c3.12,0,5.96-1.16,8.01-3.26,1.92-1.97,2.94-4.57,2.86-7.32-.15-5.43-5.7-11.34-10.64-11.34-.02,0-.04,0-.05,0h-37.37c-17.38.62-34.15-5.81-46.08-17.67-11.56-11.48-17.6-26.76-17.02-43.03.57-15.93,7.73-31.37,19.64-42.37C204.57,5.48,219.97-.28,236.07.32l111.01-.32c-12.58,13.2-25.93,27.28-37.96,39.5-31.59.28-42.25.56-73.84.83l-.47-.02c-5.53-.26-10.87,1.74-15.05,5.6-4.13,3.81-6.6,9.06-6.79,14.39-.23,6.4,2.72,10.72,5.23,13.22,4.15,4.13,10.22,6.32,16.65,6.06l.85-.02h37.5c.1,0,.21,0,.31,0,26.76,0,49.91,22.93,50.64,50.29.37,13.64-4.67,26.54-14.19,36.31-9.64,9.9-22.67,15.36-36.68,15.36Z"/>
      <path class="cls-1" d="M62.56,79.43h60.64c14.8,0,22.44-8.33,22.44-19.66s-7.4-19.89-22.44-19.89H38.8S0,.09,0,.09h130.37c17.12,0,31.69,6.01,43.95,17.81,12.26,11.8,18.5,26.14,18.5,42.79,0,13.65-4.16,25.67-12.26,36.08-8.09,10.41-18.97,17.58-32.15,21.05l51.81,63.61h-57.13L62.56,79.43Z"/>
      <polygon class="cls-2" points="13.7 79.43 60.36 79.54 93.41 121.3 60.65 121.3 60.65 181.44 13.7 181.44 13.7 79.43"/>
    </g>
  </g>
</svg>