<?xml version="1.0" encoding="UTF-8"?>
<svg id="Layer_2" data-name="Layer 2" xmlns="http://www.w3.org/2000/svg" xmlns:xlink="http://www.w3.org/1999/xlink" viewBox="0 0 168.24 168.24">
  <defs>
    <style>
      .cls-1 {
        fill: #000;
      }

      .cls-1, .cls-2, .cls-3, .cls-4, .cls-5, .cls-6 {
        stroke-width: 0px;
      }

      .cls-7 {
        opacity: .6;
      }

      .cls-2 {
        fill: url(#linear-gradient-4);
      }

      .cls-3 {
        fill: url(#linear-gradient-2);
      }

      .cls-4 {
        fill: url(#linear-gradient-3);
      }

      .cls-5 {
        fill: url(#linear-gradient);
        opacity: .3;
      }

      .cls-6 {
        fill: #efefef;
      }
    </style>
    <linearGradient id="linear-gradient" x1="130.74" y1="72.32" x2="107.75" y2="88.32" gradientUnits="userSpaceOnUse">
      <stop offset="0" stop-color="#f12711"/>
      <stop offset="1" stop-color="#f5af19"/>
    </linearGradient>
    <linearGradient id="linear-gradient-2" x1="132.67" y1="77.13" x2="102.54" y2="98.09" xlink:href="#linear-gradient"/>
    <linearGradient id="linear-gradient-3" x1="155.67" y1="57.95" x2="81.96" y2="109.22" xlink:href="#linear-gradient"/>
    <linearGradient id="linear-gradient-4" x1="10.21" y1="113.19" x2="40.79" y2="89.11" xlink:href="#linear-gradient"/>
  </defs>
  <g id="Layer_30" data-name="Layer 30">
    <rect class="cls-1" width="168.24" height="168.24"/>
    <g>
      <path class="cls-5" d="M146.73,96.17c-.32-11.77-10.27-21.63-21.78-21.63-.04,0-.09,0-.13,0h-16.5c-2.77.12-6.74-2.31-6.86-5.28-.14-3.5,1.5-6.74,7.26-6.74l-13.48-.47,8.32,24.71,43.17,9.41Z"/>
      <g class="cls-7">
        <path class="cls-3" d="M148.09,98.49c-.32-11.77-10.27-21.63-21.78-21.63-.04,0-.09,0-.13,0h-16.5c-2.77.12-5.38-.83-7.16-2.6-1.08-1.07-2.14-2.91-1.37-7.28l-10.76,19.49,57.71,12.02Z"/>
      </g>
      <path class="cls-4" d="M127.02,123.16h-45.34v-17.21h45.34c1.34,0,2.57-.5,3.44-1.4.83-.85,1.26-1.97,1.23-3.15-.06-2.34-2.45-4.88-4.58-4.88,0,0-.02,0-.02,0h-16.07c-7.48.27-14.69-2.5-19.82-7.6-4.97-4.94-7.57-11.51-7.32-18.51.24-6.85,3.32-13.49,8.45-18.23,5.14-4.75,11.77-7.23,18.69-6.97l47.75-.14c-5.41,5.68-11.16,11.74-16.33,16.99-13.59.12-18.18.24-31.76.36h-.2c-2.38-.12-4.68.74-6.48,2.4-1.78,1.64-2.84,3.9-2.92,6.19-.1,2.75,1.17,4.61,2.25,5.69,1.79,1.77,4.4,2.72,7.16,2.61h.36s16.13,0,16.13,0c.04,0,.09,0,.13,0,11.51,0,21.47,9.87,21.78,21.63.16,5.87-2.01,11.41-6.11,15.62-4.15,4.26-9.75,6.61-15.78,6.61Z"/>
      <path class="cls-6" d="M36.38,79.24h26.09c6.37,0,9.65-3.58,9.65-8.46s-3.18-8.56-9.65-8.56H26.15s-16.69-17.11-16.69-17.11h56.08c7.36,0,13.63,2.59,18.91,7.66s7.96,11.24,7.96,18.41c0,5.87-1.79,11.04-5.27,15.52-3.48,4.48-8.16,7.56-13.83,9.05l22.29,27.36h-24.58l-34.65-43.88Z"/>
      <polygon class="cls-2" points="15.36 79.24 35.43 79.29 49.65 97.25 35.56 97.25 35.56 123.12 15.36 123.12 15.36 79.24"/>
    </g>
  </g>
</svg>