<?xml version="1.0" encoding="UTF-8"?>
<svg id="Layer_2" data-name="Layer 2" xmlns="http://www.w3.org/2000/svg" xmlns:xlink="http://www.w3.org/1999/xlink" viewBox="0 0 170.24 170.24">
  <defs>
    <style>
      .cls-1 {
        fill: #1e1e1e;
      }

      .cls-1, .cls-2, .cls-3, .cls-4, .cls-5 {
        stroke-width: 0px;
      }

      .cls-6 {
        fill: #fff;
        stroke: #000;
        stroke-miterlimit: 10;
        stroke-width: 2px;
      }

      .cls-7 {
        opacity: .6;
      }

      .cls-2 {
        fill: url(#linear-gradient-4);
      }

      .cls-3 {
        fill: url(#linear-gradient-2);
      }

      .cls-4 {
        fill: url(#linear-gradient-3);
      }

      .cls-5 {
        fill: url(#linear-gradient);
        opacity: .3;
      }
    </style>
    <linearGradient id="linear-gradient" x1="131.74" y1="73.32" x2="108.75" y2="89.32" gradientUnits="userSpaceOnUse">
      <stop offset="0" stop-color="#764ba2"/>
      <stop offset="1" stop-color="#667eea"/>
    </linearGradient>
    <linearGradient id="linear-gradient-2" x1="133.67" y1="78.13" x2="103.54" y2="99.09" xlink:href="#linear-gradient"/>
    <linearGradient id="linear-gradient-3" x1="156.67" y1="58.95" x2="82.96" y2="110.22" xlink:href="#linear-gradient"/>
    <linearGradient id="linear-gradient-4" x1="11.21" y1="114.19" x2="41.79" y2="90.11" xlink:href="#linear-gradient"/>
  </defs>
  <g id="Layer_30" data-name="Layer 30">
    <rect class="cls-6" x="1" y="1" width="168.24" height="168.24"/>
    <g>
      <path class="cls-5" d="M147.73,97.17c-.32-11.77-10.27-21.63-21.78-21.63-.04,0-.09,0-.13,0h-16.5c-2.77.12-6.74-2.31-6.86-5.28-.14-3.5,1.5-6.74,7.26-6.74l-13.48-.47,8.32,24.71,43.17,9.41Z"/>
      <g class="cls-7">
        <path class="cls-3" d="M149.09,99.49c-.32-11.77-10.27-21.63-21.78-21.63-.04,0-.09,0-.13,0h-16.5c-2.77.12-5.38-.83-7.16-2.6-1.08-1.07-2.14-2.91-1.37-7.28l-10.76,19.49,57.71,12.02Z"/>
      </g>
      <path class="cls-4" d="M128.02,124.16h-45.34v-17.21h45.34c1.34,0,2.57-.5,3.44-1.4.83-.85,1.26-1.97,1.23-3.15-.06-2.34-2.45-4.88-4.58-4.88,0,0-.02,0-.02,0h-16.07c-7.48.27-14.69-2.5-19.82-7.6-4.97-4.94-7.57-11.51-7.32-18.51.24-6.85,3.32-13.49,8.45-18.23,5.14-4.75,11.77-7.23,18.69-6.97l47.75-.14c-5.41,5.68-11.16,11.74-16.33,16.99-13.59.12-18.18.24-31.76.36h-.2c-2.38-.12-4.68.74-6.48,2.4-1.78,1.64-2.84,3.9-2.92,6.19-.1,2.75,1.17,4.61,2.25,5.69,1.79,1.77,4.4,2.72,7.16,2.61h.36s16.13,0,16.13,0c.04,0,.09,0,.13,0,11.51,0,21.47,9.87,21.78,21.63.16,5.87-2.01,11.41-6.11,15.62-4.15,4.26-9.75,6.61-15.78,6.61Z"/>
      <path class="cls-1" d="M37.38,80.24h26.09c6.37,0,9.65-3.58,9.65-8.46s-3.18-8.56-9.65-8.56H27.15s-16.69-17.11-16.69-17.11h56.08c7.36,0,13.63,2.59,18.91,7.66s7.96,11.24,7.96,18.41c0,5.87-1.79,11.04-5.27,15.52-3.48,4.48-8.16,7.56-13.83,9.05l22.29,27.36h-24.58l-34.65-43.88Z"/>
      <polygon class="cls-2" points="16.36 80.24 36.43 80.29 50.65 98.25 36.56 98.25 36.56 124.12 16.36 124.12 16.36 80.24"/>
    </g>
  </g>
</svg>